<svg width="300" height="400" viewBox="0 0 300 400" fill="none" xmlns="http://www.w3.org/2000/svg">
<path d="M106.25 233.333H112.3C112.417 233.333 112.518 233.252 112.544 233.138L131.065 150.821C131.102 150.657 131.338 150.668 131.36 150.834L149.877 290.736C149.899 290.905 150.142 290.912 150.173 290.744L162.462 225.204C162.484 225.086 162.587 225 162.707 225H193.75" stroke="#0057A3" stroke-width="5" stroke-linecap="round"/>
<path d="M112.5 70.8333V87.6667C112.5 89.5523 112.5 90.4951 113.086 91.0809C113.672 91.6667 114.614 91.6667 116.5 91.6667H183.5C185.386 91.6667 186.328 91.6667 186.914 91.0809C187.5 90.4951 187.5 89.5523 187.5 87.6667V70.8333M112.5 70.8333V54C112.5 52.1144 112.5 51.1716 113.086 50.5858C113.672 50 114.614 50 116.5 50H183.5C185.386 50 186.328 50 186.914 50.5858C187.5 51.1716 187.5 52.1144 187.5 54V70.8333M112.5 70.8333H85.25C83.3644 70.8333 82.4216 70.8333 81.8358 71.4191C81.25 72.0049 81.25 72.9477 81.25 74.8333V336.667C81.25 339.024 81.25 340.202 81.9822 340.934C82.7145 341.667 83.893 341.667 86.25 341.667H213.75C216.107 341.667 217.286 341.667 218.018 340.934C218.75 340.202 218.75 339.024 218.75 336.667V74.8333C218.75 72.9477 218.75 72.0049 218.164 71.4191C217.578 70.8333 216.636 70.8333 214.75 70.8333H187.5" stroke="#0057A3" stroke-width="5"/>
</svg>
