<svg width="25" height="24" viewBox="0 0 25 24" fill="none" xmlns="http://www.w3.org/2000/svg">
<path d="M2.32422 11.083C2.32419 10.4399 2.47924 9.80619 2.77622 9.23573C3.0732 8.66527 3.50336 8.17483 4.03022 7.80599L10.0302 3.60599C10.7026 3.13529 11.5035 2.88281 12.3242 2.88281C13.145 2.88281 13.9459 3.13529 14.6182 3.60599L20.6182 7.80599C21.1451 8.17483 21.5752 8.66527 21.8722 9.23573C22.1692 9.80619 22.3242 10.4399 22.3242 11.083V19C22.3242 19.5304 22.1135 20.0391 21.7384 20.4142C21.3634 20.7893 20.8547 21 20.3242 21H4.32422C3.79379 21 3.28508 20.7893 2.91001 20.4142C2.53493 20.0391 2.32422 19.5304 2.32422 19V11.083Z" stroke="#0057A3" stroke-width="1.5" stroke-linecap="round" stroke-linejoin="round"/>
<path d="M2.82422 9.5L9.82522 15.001C10.5345 15.5685 11.4158 15.8777 12.3242 15.8777C13.2326 15.8777 14.1139 15.5685 14.8232 15.001L21.8242 9.5" stroke="#0057A3" stroke-width="1.5" stroke-linecap="round" stroke-linejoin="round"/>
</svg>
