<svg width="25" height="24" viewBox="0 0 25 24" fill="none" xmlns="http://www.w3.org/2000/svg">
<path fill-rule="evenodd" clip-rule="evenodd" d="M7.78922 1.066C8.96222 1.012 9.33622 1 12.3242 1C15.3122 1 15.6862 1.013 16.8582 1.066C18.0302 1.119 18.8302 1.306 19.5302 1.577C20.2632 1.854 20.9282 2.287 21.4782 2.847C22.0382 3.396 22.4702 4.06 22.7462 4.794C23.0182 5.494 23.2042 6.294 23.2582 7.464C23.3122 8.639 23.3242 9.013 23.3242 12C23.3242 14.988 23.3112 15.362 23.2582 16.535C23.2052 17.705 23.0182 18.505 22.7462 19.205C22.4702 19.9391 22.0375 20.6042 21.4782 21.154C20.9282 21.714 20.2632 22.146 19.5302 22.422C18.8302 22.694 18.0302 22.88 16.8602 22.934C15.6862 22.988 15.3122 23 12.3242 23C9.33622 23 8.96222 22.987 7.78922 22.934C6.61922 22.881 5.81922 22.694 5.11922 22.422C4.38514 22.146 3.72004 21.7133 3.17022 21.154C2.6106 20.6047 2.17753 19.9399 1.90122 19.206C1.63022 18.506 1.44422 17.706 1.39022 16.536C1.33622 15.361 1.32422 14.987 1.32422 12C1.32422 9.012 1.33722 8.638 1.39022 7.466C1.44322 6.294 1.63022 5.494 1.90122 4.794C2.17794 4.06008 2.61134 3.39531 3.17122 2.846C3.72026 2.2865 4.38469 1.85344 5.11822 1.577C5.81822 1.306 6.61922 1.12 7.78922 1.066ZM16.7692 3.046C15.6092 2.993 15.2612 2.982 12.3242 2.982C9.38722 2.982 9.03922 2.993 7.87922 3.046C6.80622 3.095 6.22422 3.274 5.83622 3.425C5.32322 3.625 4.95622 3.862 4.57122 4.247C4.20626 4.60205 3.9254 5.03428 3.74922 5.512C3.59822 5.9 3.41922 6.482 3.37022 7.555C3.31722 8.715 3.30622 9.063 3.30622 12C3.30622 14.937 3.31722 15.285 3.37022 16.445C3.41922 17.518 3.59822 18.1 3.74922 18.488C3.92522 18.965 4.20622 19.398 4.57122 19.753C4.92622 20.118 5.35922 20.399 5.83622 20.575C6.22422 20.726 6.80622 20.905 7.87922 20.954C9.03922 21.007 9.38622 21.018 12.3242 21.018C15.2622 21.018 15.6092 21.007 16.7692 20.954C17.8422 20.905 18.4242 20.726 18.8122 20.575C19.3252 20.375 19.6922 20.138 20.0772 19.753C20.4422 19.398 20.7232 18.965 20.8992 18.488C21.0502 18.1 21.2292 17.518 21.2782 16.445C21.3312 15.285 21.3422 14.937 21.3422 12C21.3422 9.063 21.3312 8.715 21.2782 7.555C21.2292 6.482 21.0502 5.9 20.8992 5.512C20.6992 4.999 20.4622 4.632 20.0772 4.247C19.7221 3.88207 19.2899 3.60121 18.8122 3.425C18.4242 3.274 17.8422 3.095 16.7692 3.046ZM10.9192 15.391C11.7039 15.7176 12.5776 15.7617 13.3911 15.5157C14.2047 15.2697 14.9076 14.7489 15.3798 14.0422C15.852 13.3356 16.0643 12.4869 15.9803 11.6411C15.8963 10.7953 15.5212 10.005 14.9192 9.405C14.5355 9.02148 14.0714 8.72781 13.5606 8.54515C13.0497 8.36248 12.5046 8.29536 11.9647 8.34862C11.4248 8.40187 10.9034 8.57418 10.438 8.85313C9.97267 9.13208 9.57496 9.51074 9.27352 9.96185C8.97208 10.413 8.77441 10.9253 8.69473 11.462C8.61506 11.9986 8.65537 12.5463 8.81276 13.0655C8.97015 13.5847 9.2407 14.0626 9.60494 14.4647C9.96918 14.8668 10.418 15.1832 10.9192 15.391ZM8.32622 8.002C8.85124 7.47697 9.47454 7.0605 10.1605 6.77636C10.8465 6.49222 11.5817 6.34597 12.3242 6.34597C13.0667 6.34597 13.8019 6.49222 14.4879 6.77636C15.1739 7.0605 15.7972 7.47697 16.3222 8.002C16.8472 8.52702 17.2637 9.15032 17.5479 9.8363C17.832 10.5223 17.9782 11.2575 17.9782 12C17.9782 12.7425 17.832 13.4777 17.5479 14.1637C17.2637 14.8497 16.8472 15.473 16.3222 15.998C15.2619 17.0583 13.8238 17.654 12.3242 17.654C10.8247 17.654 9.38655 17.0583 8.32622 15.998C7.26588 14.9377 6.67019 13.4995 6.67019 12C6.67019 10.5005 7.26588 9.06234 8.32622 8.002ZM19.2322 7.188C19.3623 7.06527 19.4665 6.91768 19.5385 6.75397C19.6106 6.59027 19.649 6.41377 19.6516 6.23493C19.6542 6.05609 19.6209 5.87855 19.5537 5.71281C19.4865 5.54707 19.3867 5.39651 19.2602 5.27004C19.1337 5.14357 18.9831 5.04376 18.8174 4.97652C18.6517 4.90928 18.4741 4.87598 18.2953 4.87858C18.1164 4.88119 17.94 4.91965 17.7762 4.9917C17.6125 5.06374 17.4649 5.1679 17.3422 5.298C17.1035 5.55103 16.9728 5.88712 16.9779 6.23493C16.983 6.58274 17.1234 6.91488 17.3694 7.16084C17.6153 7.40681 17.9475 7.54723 18.2953 7.5523C18.6431 7.55737 18.9792 7.42669 19.2322 7.188Z" fill="#0057A3"/>
</svg>
