<svg width="42" height="42" viewBox="0 0 42 42" fill="none" xmlns="http://www.w3.org/2000/svg">
<path d="M12.25 0.166016H29.75C36.4167 0.166016 41.8334 5.58268 41.8334 12.2494V29.7494C41.8334 32.9541 40.5603 36.0275 38.2942 38.2936C36.0282 40.5596 32.9547 41.8327 29.75 41.8327H12.25C5.58335 41.8327 0.166687 36.416 0.166687 29.7494V12.2494C0.166687 9.04465 1.43975 5.97121 3.70581 3.70514C5.97188 1.43908 9.04532 0.166016 12.25 0.166016ZM11.8334 4.33268C9.84423 4.33268 7.93658 5.12286 6.53005 6.52938C5.12353 7.9359 4.33335 9.84356 4.33335 11.8327V30.166C4.33335 34.3119 7.68752 37.666 11.8334 37.666H30.1667C32.1558 37.666 34.0635 36.8758 35.47 35.4693C36.8765 34.0628 37.6667 32.1551 37.6667 30.166V11.8327C37.6667 7.68685 34.3125 4.33268 30.1667 4.33268H11.8334ZM31.9375 7.45768C32.6282 7.45768 33.2906 7.73205 33.7789 8.22043C34.2673 8.7088 34.5417 9.37118 34.5417 10.0618C34.5417 10.7525 34.2673 11.4149 33.7789 11.9033C33.2906 12.3917 32.6282 12.666 31.9375 12.666C31.2469 12.666 30.5845 12.3917 30.0961 11.9033C29.6077 11.4149 29.3334 10.7525 29.3334 10.0618C29.3334 9.37118 29.6077 8.7088 30.0961 8.22043C30.5845 7.73205 31.2469 7.45768 31.9375 7.45768ZM21 10.5827C23.7627 10.5827 26.4122 11.6802 28.3657 13.6337C30.3192 15.5872 31.4167 18.2367 31.4167 20.9994C31.4167 23.762 30.3192 26.4115 28.3657 28.365C26.4122 30.3186 23.7627 31.416 21 31.416C18.2374 31.416 15.5878 30.3186 13.6343 28.365C11.6808 26.4115 10.5834 23.762 10.5834 20.9994C10.5834 18.2367 11.6808 15.5872 13.6343 13.6337C15.5878 11.6802 18.2374 10.5827 21 10.5827ZM21 14.7493C19.3424 14.7493 17.7527 15.4078 16.5806 16.5799C15.4085 17.752 14.75 19.3417 14.75 20.9994C14.75 22.657 15.4085 24.2467 16.5806 25.4188C17.7527 26.5909 19.3424 27.2494 21 27.2494C22.6576 27.2494 24.2473 26.5909 25.4194 25.4188C26.5915 24.2467 27.25 22.657 27.25 20.9994C27.25 19.3417 26.5915 17.752 25.4194 16.5799C24.2473 15.4078 22.6576 14.7493 21 14.7493Z" fill="white"/>
</svg>
