<svg width="234" height="235" viewBox="0 0 234 235" fill="none" xmlns="http://www.w3.org/2000/svg">
<path d="M177.733 143.572C172.507 142.305 167.242 145.571 166.003 150.806C164.755 156.042 168.002 161.297 173.238 162.535C203.521 169.721 214.5 180.348 214.5 185.75C214.5 197.401 175.617 214.999 117 214.999C58.3926 214.999 19.5001 197.401 19.5001 185.75C19.5001 180.348 30.4885 169.721 60.7522 162.535C65.9976 161.297 69.2347 156.042 67.9866 150.806C66.7485 145.571 61.4835 142.304 56.2573 143.572C19.9777 152.171 -9.15527e-05 167.147 -9.15527e-05 185.75C-9.15527e-05 217.749 58.8706 234.499 117 234.499C175.139 234.499 234 217.749 234 185.75C234 167.147 214.022 152.171 177.733 143.572Z" fill="#2A73B2"/>
<path d="M117.005 78.5052C122.387 78.5052 126.754 74.1374 126.754 68.7555C126.754 63.3736 122.387 59.0059 117.005 59.0059C111.623 59.0059 107.255 63.3736 107.255 68.7555C107.255 74.1374 111.623 78.5052 117.005 78.5052Z" fill="#2A73B2"/>
<path d="M104.31 182.175L108.278 190.111C109.936 193.416 113.309 195.502 117.005 195.502C120.7 195.502 124.073 193.416 125.731 190.111L134.135 173.302C144.363 152.837 156.979 133.016 169.177 113.847L174.734 105.102C181.617 94.221 185.254 81.6533 185.254 68.7543C185.254 49.3327 176.938 30.7689 162.439 17.8214C147.951 4.88355 128.461 -1.31687 109.029 0.964584C78.687 4.41602 53.6298 28.8489 49.4274 59.054C46.9412 76.9547 51.4164 94.7287 62.0145 109.119C78.5508 131.524 91.4597 156.455 104.31 182.175ZM117.005 39.5053C133.131 39.5053 146.255 52.6287 146.255 68.7548C146.255 84.8808 133.131 98.0042 117.005 98.0042C100.878 98.0042 87.7545 84.8808 87.7545 68.7548C87.7545 52.6287 100.878 39.5053 117.005 39.5053Z" fill="#2A73B2"/>
</svg>
