<svg width="300" height="400" viewBox="0 0 300 400" fill="none" xmlns="http://www.w3.org/2000/svg">
<path d="M56.2503 141.666C79.0969 11.7337 221.02 11.7336 243.75 141.666C256.423 214.09 187.5 358.333 150 358.333C112.5 358.333 43.5669 214.151 56.2503 141.666Z" stroke="#0057A3" stroke-width="5"/>
<path d="M206.25 166.666C206.25 208.087 181.066 241.666 150 241.666C118.934 241.666 93.75 208.087 93.75 166.666C93.75 125.245 118.934 91.666 150 91.666C181.066 91.666 206.25 125.245 206.25 166.666Z" stroke="#0057A3" stroke-width="5"/>
<path d="M138.876 131.43C138.281 133.345 138.281 135.771 138.281 140.625V150.542C138.281 150.777 138.281 150.895 138.226 150.968C138.171 151.042 138.083 151.042 137.906 151.042H130.469C126.829 151.042 125.008 151.042 123.573 151.835C121.659 152.892 120.138 154.92 119.345 157.472C118.75 159.386 118.75 161.813 118.75 166.667C118.75 171.52 118.75 173.947 119.345 175.861C120.138 178.414 121.659 180.442 123.573 181.499C125.008 182.292 126.829 182.292 130.469 182.292H137.906C138.083 182.292 138.171 182.292 138.226 182.365C138.281 182.438 138.281 182.556 138.281 182.792V192.708C138.281 197.562 138.281 199.989 138.876 201.903C139.669 204.455 141.19 206.483 143.104 207.54C144.54 208.333 146.36 208.333 150 208.333C153.64 208.333 155.46 208.333 156.896 207.54C158.81 206.483 160.331 204.455 161.124 201.903C161.719 199.989 161.719 197.562 161.719 192.708V182.792C161.719 182.556 161.719 182.438 161.774 182.365C161.829 182.292 161.917 182.292 162.094 182.292H169.531C173.171 182.292 174.992 182.292 176.427 181.499C178.341 180.442 179.862 178.414 180.655 175.861C181.25 173.947 181.25 171.52 181.25 166.667C181.25 161.813 181.25 159.386 180.655 157.472C179.862 154.92 178.342 152.892 176.427 151.835C174.992 151.042 173.171 151.042 169.531 151.042H162.094C161.917 151.042 161.829 151.042 161.774 150.968C161.719 150.895 161.719 150.777 161.719 150.542V140.625C161.719 135.771 161.719 133.345 161.124 131.43C160.331 128.878 158.81 126.85 156.896 125.793C155.46 125 153.64 125 150 125C146.36 125 144.54 125 143.104 125.793C141.19 126.85 139.669 128.878 138.876 131.43Z" stroke="#0057A3" stroke-width="5"/>
</svg>
