<svg width="234" height="485" viewBox="0 0 234 485" fill="none" xmlns="http://www.w3.org/2000/svg">
<path d="M177.733 143.572C172.507 142.305 167.242 145.571 166.003 150.806C164.755 156.042 168.002 161.297 173.238 162.535C203.521 169.721 214.5 180.348 214.5 185.75C214.5 197.401 175.617 214.999 117 214.999C58.3926 214.999 19.5001 197.401 19.5001 185.75C19.5001 180.348 30.4885 169.721 60.7522 162.535C65.9976 161.297 69.2347 156.042 67.9866 150.806C66.7485 145.571 61.4835 142.304 56.2573 143.572C19.9777 152.171 -9.15527e-05 167.147 -9.15527e-05 185.75C-9.15527e-05 217.749 58.8706 234.499 117 234.499C175.139 234.499 234 217.749 234 185.75C234 167.147 214.022 152.171 177.733 143.572Z" fill="#2A73B2"/>
<path d="M117.005 78.5052C122.387 78.5052 126.754 74.1374 126.754 68.7555C126.754 63.3736 122.387 59.0059 117.005 59.0059C111.623 59.0059 107.255 63.3736 107.255 68.7555C107.255 74.1374 111.623 78.5052 117.005 78.5052Z" fill="#2A73B2"/>
<path d="M104.31 182.175L108.278 190.111C109.936 193.416 113.309 195.502 117.005 195.502C120.7 195.502 124.073 193.416 125.731 190.111L134.135 173.302C144.363 152.837 156.979 133.016 169.177 113.847L174.734 105.102C181.617 94.221 185.254 81.6533 185.254 68.7543C185.254 49.3327 176.938 30.7689 162.439 17.8214C147.951 4.88355 128.461 -1.31687 109.029 0.964584C78.687 4.41602 53.6298 28.8489 49.4274 59.054C46.9412 76.9547 51.4164 94.7287 62.0145 109.119C78.5508 131.524 91.4597 156.455 104.31 182.175ZM117.005 39.5053C133.131 39.5053 146.255 52.6287 146.255 68.7548C146.255 84.8808 133.131 98.0042 117.005 98.0042C100.878 98.0042 87.7545 84.8808 87.7545 68.7548C87.7545 52.6287 100.878 39.5053 117.005 39.5053Z" fill="#2A73B2"/>
<path d="M59.4009 267.9V270.98H51.1409V276.468H59.1209V279.548H51.1409V287.5H47.9209V267.9H59.4009ZM65.0731 270.84C64.3171 271.596 63.1411 271.596 62.3571 270.84C61.6011 270.056 61.6011 268.88 62.3571 268.124C63.1131 267.34 64.3451 267.34 65.1011 268.124C65.8571 268.88 65.8571 270.056 65.0731 270.84ZM65.2411 287.5H62.2171V273.5H65.2411V287.5ZM76.1163 273.136C79.3363 273.136 81.4923 275.32 81.4923 278.904V287.5H78.4683V279.212C78.4683 277.112 77.2643 275.964 75.3323 275.964C73.2043 275.964 71.7763 277.28 71.7763 279.996V287.5H68.7523V273.5H71.7763V275.292C72.7003 273.864 74.1283 273.136 76.1163 273.136ZM95.8364 275.488V267.9H98.8604V287.5H95.8364V285.484C94.6884 287.08 93.0644 287.864 90.9364 287.864C89.0044 287.864 87.3804 287.164 86.0084 285.736C84.6364 284.308 83.9644 282.544 83.9644 280.5C83.9644 278.428 84.6364 276.692 86.0084 275.264C87.3804 273.836 89.0044 273.136 90.9364 273.136C93.0644 273.136 94.6884 273.92 95.8364 275.488ZM88.2484 283.72C89.0884 284.56 90.1524 284.98 91.4124 284.98C92.6724 284.98 93.7364 284.56 94.5764 283.72C95.4164 282.852 95.8364 281.788 95.8364 280.5C95.8364 279.212 95.4164 278.148 94.5764 277.308C93.7364 276.44 92.6724 276.02 91.4124 276.02C90.1524 276.02 89.0884 276.44 88.2484 277.308C87.4084 278.148 86.9884 279.212 86.9884 280.5C86.9884 281.788 87.4084 282.852 88.2484 283.72ZM120.473 275.488V273.5H123.497V287.5H120.473V285.484C119.325 287.08 117.701 287.864 115.573 287.864C113.641 287.864 112.017 287.164 110.645 285.736C109.273 284.308 108.601 282.544 108.601 280.5C108.601 278.428 109.273 276.692 110.645 275.264C112.017 273.836 113.641 273.136 115.573 273.136C117.701 273.136 119.325 273.92 120.473 275.488ZM112.885 283.72C113.725 284.56 114.789 284.98 116.049 284.98C117.309 284.98 118.373 284.56 119.213 283.72C120.053 282.852 120.473 281.788 120.473 280.5C120.473 279.212 120.053 278.148 119.213 277.308C118.373 276.44 117.309 276.02 116.049 276.02C114.789 276.02 113.725 276.44 112.885 277.308C112.045 278.148 111.625 279.212 111.625 280.5C111.625 281.788 112.045 282.852 112.885 283.72ZM134.218 267.9H141.442C143.29 267.9 144.83 268.516 146.062 269.748C147.322 270.98 147.938 272.52 147.938 274.34C147.938 276.16 147.322 277.672 146.062 278.932C144.83 280.164 143.29 280.78 141.442 280.78H137.438V287.5H134.218V267.9ZM137.438 277.756H141.442C143.346 277.756 144.718 276.328 144.718 274.34C144.718 272.352 143.346 270.924 141.442 270.924H137.438V277.756ZM162.353 275.936V267.9H165.573V287.5H162.353V279.016H153.953V287.5H150.733V267.9H153.953V275.936H162.353ZM178.759 287.864C175.819 287.864 173.355 286.884 171.423 284.952C169.491 282.992 168.511 280.584 168.511 277.7C168.511 274.816 169.491 272.408 171.423 270.476C173.355 268.516 175.819 267.536 178.759 267.536C182.315 267.536 185.507 269.328 187.187 272.212L184.387 273.836C183.351 271.904 181.223 270.672 178.759 270.672C176.659 270.672 174.979 271.344 173.663 272.66C172.375 273.976 171.731 275.656 171.731 277.7C171.731 279.744 172.375 281.424 173.663 282.74C174.979 284.056 176.659 284.728 178.759 284.728C181.223 284.728 183.379 283.496 184.387 281.564L187.187 283.16C186.375 284.588 185.199 285.736 183.687 286.604C182.203 287.444 180.551 287.864 178.759 287.864ZM83.9858 321.864C81.0458 321.864 78.5818 320.884 76.6498 318.952C74.7178 316.992 73.7378 314.584 73.7378 311.7C73.7378 308.816 74.7178 306.408 76.6498 304.476C78.5818 302.516 81.0458 301.536 83.9858 301.536C87.5418 301.536 90.7338 303.328 92.4138 306.212L89.6138 307.836C88.5778 305.904 86.4498 304.672 83.9858 304.672C81.8858 304.672 80.2058 305.344 78.8898 306.66C77.6018 307.976 76.9578 309.656 76.9578 311.7C76.9578 313.744 77.6018 315.424 78.8898 316.74C80.2058 318.056 81.8858 318.728 83.9858 318.728C86.4498 318.728 88.6058 317.496 89.6138 315.564L92.4138 317.16C91.6018 318.588 90.4258 319.736 88.9138 320.604C87.4298 321.444 85.7778 321.864 83.9858 321.864ZM108.39 315.788H97.2456C97.6936 317.916 99.4016 319.092 101.726 319.092C103.322 319.092 104.526 318.504 105.338 317.356L107.83 318.812C106.458 320.856 104.414 321.864 101.698 321.864C99.4296 321.864 97.5816 321.164 96.1816 319.792C94.7816 318.392 94.0816 316.628 94.0816 314.5C94.0816 312.4 94.7816 310.664 96.1536 309.264C97.5256 307.836 99.3176 307.136 101.474 307.136C103.518 307.136 105.198 307.864 106.514 309.292C107.83 310.72 108.502 312.484 108.502 314.528C108.502 314.836 108.474 315.256 108.39 315.788ZM97.2176 313.324H105.45C105.03 311.056 103.434 309.88 101.446 309.88C99.2056 309.88 97.6376 311.196 97.2176 313.324ZM118.526 307.136C121.746 307.136 123.902 309.32 123.902 312.904V321.5H120.878V313.212C120.878 311.112 119.674 309.964 117.742 309.964C115.614 309.964 114.186 311.28 114.186 313.996V321.5H111.162V307.5H114.186V309.292C115.11 307.864 116.538 307.136 118.526 307.136ZM134.971 307.5V310.412H131.499V317.132C131.499 318.924 132.675 318.896 134.971 318.784V321.5C130.351 322.06 128.475 320.8 128.475 317.132V310.412H125.899V307.5H128.475V304.476L131.499 303.58V307.5H134.971ZM150.663 315.788H139.519C139.967 317.916 141.675 319.092 143.999 319.092C145.595 319.092 146.799 318.504 147.611 317.356L150.103 318.812C148.731 320.856 146.687 321.864 143.971 321.864C141.703 321.864 139.855 321.164 138.455 319.792C137.055 318.392 136.355 316.628 136.355 314.5C136.355 312.4 137.055 310.664 138.427 309.264C139.799 307.836 141.591 307.136 143.747 307.136C145.791 307.136 147.471 307.864 148.787 309.292C150.103 310.72 150.775 312.484 150.775 314.528C150.775 314.836 150.747 315.256 150.663 315.788ZM139.491 313.324H147.723C147.303 311.056 145.707 309.88 143.719 309.88C141.479 309.88 139.911 311.196 139.491 313.324ZM156.46 307.5V309.852C157.216 308.116 158.672 307.248 160.772 307.248V310.524C159.624 310.44 158.616 310.72 157.748 311.364C156.88 311.98 156.46 313.016 156.46 314.444V321.5H153.436V307.5H156.46Z" fill="#2E2E2E"/>
<path d="M24.806 356.216V347.9H26.066V356.216C26.066 358.232 27.326 359.492 29.486 359.492C31.646 359.492 32.906 358.232 32.906 356.216V347.9H34.166V356.216C34.166 357.584 33.734 358.682 32.87 359.492C32.006 360.302 30.872 360.716 29.486 360.716C28.1 360.716 26.966 360.302 26.102 359.492C25.238 358.682 24.806 357.584 24.806 356.216ZM37.5369 353.858C37.5369 354.668 38.3649 355.118 39.3909 355.388C40.9029 355.766 42.7929 356.18 42.7929 358.124C42.7929 358.898 42.4869 359.51 41.8749 359.996C41.2809 360.482 40.4889 360.716 39.5349 360.716C37.8069 360.716 36.5469 359.87 36.0609 358.646L37.0689 358.052C37.4109 358.988 38.3289 359.564 39.5349 359.564C40.7049 359.564 41.6049 359.114 41.6049 358.124C41.6049 357.314 40.7769 356.864 39.7509 356.594C38.2389 356.216 36.3489 355.802 36.3489 353.858C36.3489 353.12 36.6369 352.508 37.2129 352.022C37.8069 351.536 38.5449 351.284 39.4269 351.284C40.8849 351.284 42.0549 351.986 42.5769 353.12L41.5869 353.696C41.2449 352.85 40.5249 352.436 39.4269 352.436C38.4009 352.436 37.5369 352.94 37.5369 353.858ZM48.669 351.284C50.001 351.284 51.081 351.752 51.891 352.706C52.719 353.642 53.133 354.758 53.133 356.036C53.133 356.162 53.115 356.36 53.097 356.594H45.195C45.429 358.412 46.851 359.564 48.777 359.564C50.145 359.564 51.171 358.952 51.675 358.034L52.719 358.646C51.927 359.924 50.505 360.716 48.759 360.716C47.337 360.716 46.185 360.266 45.303 359.384C44.421 358.502 43.971 357.368 43.971 356C43.971 354.65 44.403 353.534 45.285 352.634C46.167 351.734 47.283 351.284 48.669 351.284ZM48.669 352.436C46.797 352.436 45.429 353.66 45.195 355.442H51.909C51.783 354.488 51.423 353.75 50.811 353.228C50.199 352.706 49.479 352.436 48.669 352.436ZM67.0648 359.366C66.1468 360.266 65.0308 360.716 63.7168 360.716C62.4028 360.716 61.2688 360.266 60.3508 359.366C59.4328 358.448 58.9828 357.332 58.9828 356C58.9828 354.668 59.4328 353.552 60.3508 352.652C61.2688 351.734 62.4028 351.284 63.7168 351.284C65.0308 351.284 66.1468 351.734 67.0648 352.652C67.9828 353.552 68.4508 354.668 68.4508 356C68.4508 357.332 67.9828 358.448 67.0648 359.366ZM61.1968 358.538C61.8808 359.222 62.7268 359.564 63.7168 359.564C64.7068 359.564 65.5528 359.222 66.2368 358.538C66.9208 357.836 67.2628 356.99 67.2628 356C67.2628 355.01 66.9208 354.164 66.2368 353.48C65.5528 352.778 64.7068 352.436 63.7168 352.436C62.7268 352.436 61.8808 352.778 61.1968 353.48C60.5128 354.164 60.1708 355.01 60.1708 356C60.1708 356.99 60.5128 357.836 61.1968 358.538ZM76.7748 356.216V351.5H77.9628V360.5H76.7748V359.096C76.1088 360.176 75.1008 360.716 73.7508 360.716C71.5728 360.716 70.2228 359.276 70.2228 357.026V351.5H71.4108V357.026C71.4108 358.628 72.2928 359.564 73.8588 359.564C75.5868 359.564 76.7748 358.502 76.7748 356.216ZM81.6639 351.5V352.994C82.2219 351.896 83.1579 351.356 84.5079 351.356V352.508C82.8699 352.508 81.6639 353.426 81.6639 355.496V360.5H80.4759V351.5H81.6639ZM90.816 347.9H95.316C96.45 347.9 97.386 348.278 98.142 349.034C98.898 349.79 99.276 350.726 99.276 351.86C99.276 352.994 98.898 353.93 98.142 354.686C97.386 355.442 96.45 355.82 95.316 355.82H92.076V360.5H90.816V347.9ZM92.076 354.632H95.316C96.09 354.632 96.738 354.38 97.242 353.858C97.764 353.336 98.016 352.67 98.016 351.86C98.016 351.05 97.764 350.402 97.242 349.88C96.738 349.358 96.09 349.088 95.316 349.088H92.076V354.632ZM109.533 353.426V347.9H110.793V360.5H109.533V354.614H102.693V360.5H101.433V347.9H102.693V353.426H109.533ZM119.554 360.716C117.646 360.716 116.062 360.086 114.82 358.826C113.578 357.566 112.948 356.018 112.948 354.2C112.948 352.382 113.578 350.834 114.82 349.574C116.062 348.314 117.646 347.684 119.554 347.684C121.876 347.684 123.946 348.89 125.008 350.78L123.892 351.428C123.1 349.898 121.426 348.908 119.554 348.908C117.988 348.908 116.692 349.412 115.702 350.438C114.712 351.464 114.208 352.706 114.208 354.2C114.208 355.694 114.712 356.936 115.702 357.962C116.692 358.988 117.988 359.492 119.554 359.492C121.426 359.492 123.1 358.502 123.892 356.972L125.008 357.602C123.982 359.492 121.876 360.716 119.554 360.716ZM132.588 360.5H131.4V347.36H132.588V360.5ZM142.651 359.366C141.733 360.266 140.617 360.716 139.303 360.716C137.989 360.716 136.855 360.266 135.937 359.366C135.019 358.448 134.569 357.332 134.569 356C134.569 354.668 135.019 353.552 135.937 352.652C136.855 351.734 137.989 351.284 139.303 351.284C140.617 351.284 141.733 351.734 142.651 352.652C143.569 353.552 144.037 354.668 144.037 356C144.037 357.332 143.569 358.448 142.651 359.366ZM136.783 358.538C137.467 359.222 138.313 359.564 139.303 359.564C140.293 359.564 141.139 359.222 141.823 358.538C142.507 357.836 142.849 356.99 142.849 356C142.849 355.01 142.507 354.164 141.823 353.48C141.139 352.778 140.293 352.436 139.303 352.436C138.313 352.436 137.467 352.778 136.783 353.48C136.099 354.164 135.757 355.01 135.757 356C135.757 356.99 136.099 357.836 136.783 358.538ZM150.219 360.716C148.869 360.716 147.735 360.266 146.835 359.366C145.935 358.448 145.485 357.332 145.485 356C145.485 354.668 145.935 353.552 146.835 352.652C147.735 351.734 148.869 351.284 150.219 351.284C152.001 351.284 153.513 352.202 154.161 353.642L153.189 354.2C152.703 353.12 151.569 352.436 150.219 352.436C149.229 352.436 148.383 352.778 147.699 353.48C147.015 354.164 146.673 355.01 146.673 356C146.673 356.99 147.015 357.836 147.699 358.538C148.383 359.222 149.229 359.564 150.219 359.564C151.569 359.564 152.667 358.88 153.261 357.8L154.251 358.376C153.513 359.816 151.965 360.716 150.219 360.716ZM163.608 353.264V351.5H164.796V360.5H163.608V358.736C162.78 360.05 161.574 360.716 159.972 360.716C158.694 360.716 157.596 360.266 156.678 359.348C155.778 358.43 155.328 357.314 155.328 356C155.328 354.686 155.778 353.57 156.678 352.652C157.596 351.734 158.694 351.284 159.972 351.284C161.574 351.284 162.78 351.95 163.608 353.264ZM157.542 358.538C158.226 359.222 159.072 359.564 160.062 359.564C161.052 359.564 161.898 359.222 162.582 358.538C163.266 357.836 163.608 356.99 163.608 356C163.608 355.01 163.266 354.164 162.582 353.48C161.898 352.778 161.052 352.436 160.062 352.436C159.072 352.436 158.226 352.778 157.542 353.48C156.858 354.164 156.516 355.01 156.516 356C156.516 356.99 156.858 357.836 157.542 358.538ZM172.082 351.5V352.652H169.49V358.106C169.49 359.654 170.354 359.528 172.082 359.456V360.5C169.562 360.878 168.302 360.194 168.302 358.106V352.652H166.412V351.5H168.302V349.34L169.49 348.98V351.5H172.082ZM181.059 359.366C180.141 360.266 179.025 360.716 177.711 360.716C176.397 360.716 175.263 360.266 174.345 359.366C173.427 358.448 172.977 357.332 172.977 356C172.977 354.668 173.427 353.552 174.345 352.652C175.263 351.734 176.397 351.284 177.711 351.284C179.025 351.284 180.141 351.734 181.059 352.652C181.977 353.552 182.445 354.668 182.445 356C182.445 357.332 181.977 358.448 181.059 359.366ZM175.191 358.538C175.875 359.222 176.721 359.564 177.711 359.564C178.701 359.564 179.547 359.222 180.231 358.538C180.915 357.836 181.257 356.99 181.257 356C181.257 355.01 180.915 354.164 180.231 353.48C179.547 352.778 178.701 352.436 177.711 352.436C176.721 352.436 175.875 352.778 175.191 353.48C174.507 354.164 174.165 355.01 174.165 356C174.165 356.99 174.507 357.836 175.191 358.538ZM185.621 351.5V352.994C186.179 351.896 187.115 351.356 188.465 351.356V352.508C186.827 352.508 185.621 353.426 185.621 355.496V360.5H184.433V351.5H185.621ZM199.363 351.5V352.652H196.771V358.106C196.771 359.654 197.635 359.528 199.363 359.456V360.5C196.843 360.878 195.583 360.194 195.583 358.106V352.652H193.693V351.5H195.583V349.34L196.771 348.98V351.5H199.363ZM208.34 359.366C207.422 360.266 206.306 360.716 204.992 360.716C203.678 360.716 202.544 360.266 201.626 359.366C200.708 358.448 200.258 357.332 200.258 356C200.258 354.668 200.708 353.552 201.626 352.652C202.544 351.734 203.678 351.284 204.992 351.284C206.306 351.284 207.422 351.734 208.34 352.652C209.258 353.552 209.726 354.668 209.726 356C209.726 357.332 209.258 358.448 208.34 359.366ZM202.472 358.538C203.156 359.222 204.002 359.564 204.992 359.564C205.982 359.564 206.828 359.222 207.512 358.538C208.196 357.836 208.538 356.99 208.538 356C208.538 355.01 208.196 354.164 207.512 353.48C206.828 352.778 205.982 352.436 204.992 352.436C204.002 352.436 203.156 352.778 202.472 353.48C201.788 354.164 201.446 355.01 201.446 356C201.446 356.99 201.788 357.836 202.472 358.538ZM14.3438 375.264V369.9H15.5318V382.5H14.3438V380.736C13.5158 382.05 12.3098 382.716 10.7078 382.716C9.42981 382.716 8.33181 382.266 7.41381 381.348C6.51381 380.43 6.06381 379.314 6.06381 378C6.06381 376.686 6.51381 375.57 7.41381 374.652C8.33181 373.734 9.42981 373.284 10.7078 373.284C12.3098 373.284 13.5158 373.95 14.3438 375.264ZM8.27781 380.538C8.96181 381.222 9.80781 381.564 10.7978 381.564C11.7878 381.564 12.6338 381.222 13.3178 380.538C14.0018 379.836 14.3438 378.99 14.3438 378C14.3438 377.01 14.0018 376.164 13.3178 375.48C12.6338 374.778 11.7878 374.436 10.7978 374.436C9.80781 374.436 8.96181 374.778 8.27781 375.48C7.59381 376.164 7.25181 377.01 7.25181 378C7.25181 378.99 7.59381 379.836 8.27781 380.538ZM19.2532 371.34C18.9112 371.682 18.3712 371.682 18.0292 371.34C17.6872 370.998 17.6872 370.458 18.0292 370.116C18.3712 369.774 18.9112 369.774 19.2532 370.116C19.5952 370.458 19.5952 370.998 19.2532 371.34ZM19.2352 382.5H18.0472V373.5H19.2352V382.5ZM22.6922 375.858C22.6922 376.668 23.5202 377.118 24.5462 377.388C26.0582 377.766 27.9482 378.18 27.9482 380.124C27.9482 380.898 27.6422 381.51 27.0302 381.996C26.4362 382.482 25.6442 382.716 24.6902 382.716C22.9622 382.716 21.7022 381.87 21.2162 380.646L22.2242 380.052C22.5662 380.988 23.4842 381.564 24.6902 381.564C25.8602 381.564 26.7602 381.114 26.7602 380.124C26.7602 379.314 25.9322 378.864 24.9062 378.594C23.3942 378.216 21.5042 377.802 21.5042 375.858C21.5042 375.12 21.7922 374.508 22.3682 374.022C22.9622 373.536 23.7002 373.284 24.5822 373.284C26.0402 373.284 27.2102 373.986 27.7322 375.12L26.7422 375.696C26.4002 374.85 25.6802 374.436 24.5822 374.436C23.5562 374.436 22.6922 374.94 22.6922 375.858ZM33.8603 382.716C32.5103 382.716 31.3763 382.266 30.4763 381.366C29.5763 380.448 29.1263 379.332 29.1263 378C29.1263 376.668 29.5763 375.552 30.4763 374.652C31.3763 373.734 32.5103 373.284 33.8603 373.284C35.6423 373.284 37.1543 374.202 37.8023 375.642L36.8303 376.2C36.3443 375.12 35.2103 374.436 33.8603 374.436C32.8703 374.436 32.0243 374.778 31.3403 375.48C30.6563 376.164 30.3143 377.01 30.3143 378C30.3143 378.99 30.6563 379.836 31.3403 380.538C32.0243 381.222 32.8703 381.564 33.8603 381.564C35.2103 381.564 36.3083 380.88 36.9023 379.8L37.8923 380.376C37.1543 381.816 35.6063 382.716 33.8603 382.716ZM47.0521 381.366C46.1341 382.266 45.0181 382.716 43.7041 382.716C42.3901 382.716 41.2561 382.266 40.3381 381.366C39.4201 380.448 38.9701 379.332 38.9701 378C38.9701 376.668 39.4201 375.552 40.3381 374.652C41.2561 373.734 42.3901 373.284 43.7041 373.284C45.0181 373.284 46.1341 373.734 47.0521 374.652C47.9701 375.552 48.4381 376.668 48.4381 378C48.4381 379.332 47.9701 380.448 47.0521 381.366ZM41.1841 380.538C41.8681 381.222 42.7141 381.564 43.7041 381.564C44.6941 381.564 45.5401 381.222 46.2241 380.538C46.9081 379.836 47.2501 378.99 47.2501 378C47.2501 377.01 46.9081 376.164 46.2241 375.48C45.5401 374.778 44.6941 374.436 43.7041 374.436C42.7141 374.436 41.8681 374.778 41.1841 375.48C40.5001 376.164 40.1581 377.01 40.1581 378C40.1581 378.99 40.5001 379.836 41.1841 380.538ZM53.4045 381.258L56.5545 373.5H57.8145L54.1245 382.5H52.6845L48.9945 373.5H50.2545L53.4045 381.258ZM63.0567 373.284C64.3887 373.284 65.4687 373.752 66.2787 374.706C67.1067 375.642 67.5207 376.758 67.5207 378.036C67.5207 378.162 67.5027 378.36 67.4847 378.594H59.5827C59.8167 380.412 61.2387 381.564 63.1647 381.564C64.5327 381.564 65.5587 380.952 66.0627 380.034L67.1067 380.646C66.3147 381.924 64.8927 382.716 63.1467 382.716C61.7247 382.716 60.5727 382.266 59.6907 381.384C58.8087 380.502 58.3587 379.368 58.3587 378C58.3587 376.65 58.7907 375.534 59.6727 374.634C60.5547 373.734 61.6707 373.284 63.0567 373.284ZM63.0567 374.436C61.1847 374.436 59.8167 375.66 59.5827 377.442H66.2967C66.1707 376.488 65.8107 375.75 65.1987 375.228C64.5867 374.706 63.8667 374.436 63.0567 374.436ZM70.5985 373.5V374.994C71.1565 373.896 72.0925 373.356 73.4425 373.356V374.508C71.8045 374.508 70.5985 375.426 70.5985 377.496V382.5H69.4105V373.5H70.5985ZM87.3106 375.264V373.5H88.4986V386.1H87.3106V380.736C86.4826 382.05 85.2766 382.716 83.6746 382.716C82.3966 382.716 81.2986 382.266 80.3806 381.348C79.4806 380.43 79.0306 379.314 79.0306 378C79.0306 376.686 79.4806 375.57 80.3806 374.652C81.2986 373.734 82.3966 373.284 83.6746 373.284C85.2766 373.284 86.4826 373.95 87.3106 375.264ZM81.2446 380.538C81.9286 381.222 82.7746 381.564 83.7646 381.564C84.7546 381.564 85.6006 381.222 86.2846 380.538C86.9686 379.836 87.3106 378.99 87.3106 378C87.3106 377.01 86.9686 376.164 86.2846 375.48C85.6006 374.778 84.7546 374.436 83.7646 374.436C82.7746 374.436 81.9286 374.778 81.2446 375.48C80.5606 376.164 80.2186 377.01 80.2186 378C80.2186 378.99 80.5606 379.836 81.2446 380.538ZM97.35 378.216V373.5H98.538V382.5H97.35V381.096C96.684 382.176 95.676 382.716 94.326 382.716C92.148 382.716 90.798 381.276 90.798 379.026V373.5H91.986V379.026C91.986 380.628 92.868 381.564 94.434 381.564C96.162 381.564 97.35 380.502 97.35 378.216ZM108.791 375.264V373.5H109.979V382.5H108.791V380.736C107.963 382.05 106.757 382.716 105.155 382.716C103.877 382.716 102.779 382.266 101.861 381.348C100.961 380.43 100.511 379.314 100.511 378C100.511 376.686 100.961 375.57 101.861 374.652C102.779 373.734 103.877 373.284 105.155 373.284C106.757 373.284 107.963 373.95 108.791 375.264ZM102.725 380.538C103.409 381.222 104.255 381.564 105.245 381.564C106.235 381.564 107.081 381.222 107.765 380.538C108.449 379.836 108.791 378.99 108.791 378C108.791 377.01 108.449 376.164 107.765 375.48C107.081 374.778 106.235 374.436 105.245 374.436C104.255 374.436 103.409 374.778 102.725 375.48C102.041 376.164 101.699 377.01 101.699 378C101.699 378.99 102.041 379.836 102.725 380.538ZM113.682 382.5H112.494V369.36H113.682V382.5ZM117.409 371.34C117.067 371.682 116.527 371.682 116.185 371.34C115.843 370.998 115.843 370.458 116.185 370.116C116.527 369.774 117.067 369.774 117.409 370.116C117.751 370.458 117.751 370.998 117.409 371.34ZM117.391 382.5H116.203V373.5H117.391V382.5ZM124.682 373.5V374.652H122.09V380.106C122.09 381.654 122.954 381.528 124.682 381.456V382.5C122.162 382.878 120.902 382.194 120.902 380.106V374.652H119.012V373.5H120.902V371.34L122.09 370.98V373.5H124.682ZM130.402 381.042L133.318 373.5H134.578L130.726 383.328C130.024 385.11 128.674 386.226 127.09 386.1V384.984C128.17 385.11 128.998 384.48 129.556 383.112L129.79 382.554L125.758 373.5H127.018L130.402 381.042ZM144.726 373.284C146.904 373.284 148.254 374.724 148.254 376.974V382.5H147.066V376.974C147.066 375.372 146.184 374.436 144.618 374.436C142.89 374.436 141.702 375.498 141.702 377.784V382.5H140.514V369.9H141.702V374.904C142.368 373.824 143.376 373.284 144.726 373.284ZM154.709 373.284C156.041 373.284 157.121 373.752 157.931 374.706C158.759 375.642 159.173 376.758 159.173 378.036C159.173 378.162 159.155 378.36 159.137 378.594H151.235C151.469 380.412 152.891 381.564 154.817 381.564C156.185 381.564 157.211 380.952 157.715 380.034L158.759 380.646C157.967 381.924 156.545 382.716 154.799 382.716C153.377 382.716 152.225 382.266 151.343 381.384C150.461 380.502 150.011 379.368 150.011 378C150.011 376.65 150.443 375.534 151.325 374.634C152.207 373.734 153.323 373.284 154.709 373.284ZM154.709 374.436C152.837 374.436 151.469 375.66 151.235 377.442H157.949C157.823 376.488 157.463 375.75 156.851 375.228C156.239 374.706 155.519 374.436 154.709 374.436ZM168.803 375.264V373.5H169.991V382.5H168.803V380.736C167.975 382.05 166.769 382.716 165.167 382.716C163.889 382.716 162.791 382.266 161.873 381.348C160.973 380.43 160.523 379.314 160.523 378C160.523 376.686 160.973 375.57 161.873 374.652C162.791 373.734 163.889 373.284 165.167 373.284C166.769 373.284 167.975 373.95 168.803 375.264ZM162.737 380.538C163.421 381.222 164.267 381.564 165.257 381.564C166.247 381.564 167.093 381.222 167.777 380.538C168.461 379.836 168.803 378.99 168.803 378C168.803 377.01 168.461 376.164 167.777 375.48C167.093 374.778 166.247 374.436 165.257 374.436C164.267 374.436 163.421 374.778 162.737 375.48C162.053 376.164 161.711 377.01 161.711 378C161.711 378.99 162.053 379.836 162.737 380.538ZM173.694 382.5H172.506V369.36H173.694V382.5ZM180.985 373.5V374.652H178.393V380.106C178.393 381.654 179.257 381.528 180.985 381.456V382.5C178.465 382.878 177.205 382.194 177.205 380.106V374.652H175.315V373.5H177.205V371.34L178.393 370.98V373.5H180.985ZM187.177 373.284C189.355 373.284 190.705 374.724 190.705 376.974V382.5H189.517V376.974C189.517 375.372 188.635 374.436 187.069 374.436C185.341 374.436 184.153 375.498 184.153 377.784V382.5H182.965V369.9H184.153V374.904C184.819 373.824 185.827 373.284 187.177 373.284ZM197.196 382.716C195.846 382.716 194.712 382.266 193.812 381.366C192.912 380.448 192.462 379.332 192.462 378C192.462 376.668 192.912 375.552 193.812 374.652C194.712 373.734 195.846 373.284 197.196 373.284C198.978 373.284 200.49 374.202 201.138 375.642L200.166 376.2C199.68 375.12 198.546 374.436 197.196 374.436C196.206 374.436 195.36 374.778 194.676 375.48C193.992 376.164 193.65 377.01 193.65 378C193.65 378.99 193.992 379.836 194.676 380.538C195.36 381.222 196.206 381.564 197.196 381.564C198.546 381.564 199.644 380.88 200.238 379.8L201.228 380.376C200.49 381.816 198.942 382.716 197.196 382.716ZM210.586 375.264V373.5H211.774V382.5H210.586V380.736C209.758 382.05 208.552 382.716 206.95 382.716C205.672 382.716 204.574 382.266 203.656 381.348C202.756 380.43 202.306 379.314 202.306 378C202.306 376.686 202.756 375.57 203.656 374.652C204.574 373.734 205.672 373.284 206.95 373.284C208.552 373.284 209.758 373.95 210.586 375.264ZM204.52 380.538C205.204 381.222 206.05 381.564 207.04 381.564C208.03 381.564 208.876 381.222 209.56 380.538C210.244 379.836 210.586 378.99 210.586 378C210.586 377.01 210.244 376.164 209.56 375.48C208.876 374.778 208.03 374.436 207.04 374.436C206.05 374.436 205.204 374.778 204.52 375.48C203.836 376.164 203.494 377.01 203.494 378C203.494 378.99 203.836 379.836 204.52 380.538ZM215.477 373.5V374.994C216.035 373.896 216.971 373.356 218.321 373.356V374.508C216.683 374.508 215.477 375.426 215.477 377.496V382.5H214.289V373.5H215.477ZM223.563 373.284C224.895 373.284 225.975 373.752 226.785 374.706C227.613 375.642 228.027 376.758 228.027 378.036C228.027 378.162 228.009 378.36 227.991 378.594H220.089C220.323 380.412 221.745 381.564 223.671 381.564C225.039 381.564 226.065 380.952 226.569 380.034L227.613 380.646C226.821 381.924 225.399 382.716 223.653 382.716C222.231 382.716 221.079 382.266 220.197 381.384C219.315 380.502 218.865 379.368 218.865 378C218.865 376.65 219.297 375.534 220.179 374.634C221.061 373.734 222.177 373.284 223.563 373.284ZM223.563 374.436C221.691 374.436 220.323 375.66 220.089 377.442H226.803C226.677 376.488 226.317 375.75 225.705 375.228C225.093 374.706 224.373 374.436 223.563 374.436ZM51.8691 404.716C50.5191 404.716 49.3851 404.266 48.4851 403.366C47.5851 402.448 47.1351 401.332 47.1351 400C47.1351 398.668 47.5851 397.552 48.4851 396.652C49.3851 395.734 50.5191 395.284 51.8691 395.284C53.6511 395.284 55.1631 396.202 55.8111 397.642L54.8391 398.2C54.3531 397.12 53.2191 396.436 51.8691 396.436C50.8791 396.436 50.0331 396.778 49.3491 397.48C48.6651 398.164 48.3231 399.01 48.3231 400C48.3231 400.99 48.6651 401.836 49.3491 402.538C50.0331 403.222 50.8791 403.564 51.8691 403.564C53.2191 403.564 54.3171 402.88 54.9111 401.8L55.9011 402.376C55.1631 403.816 53.6151 404.716 51.8691 404.716ZM61.6769 395.284C63.0089 395.284 64.0889 395.752 64.8989 396.706C65.7269 397.642 66.1409 398.758 66.1409 400.036C66.1409 400.162 66.1229 400.36 66.1049 400.594H58.2029C58.4369 402.412 59.8589 403.564 61.7849 403.564C63.1529 403.564 64.1789 402.952 64.6829 402.034L65.7269 402.646C64.9349 403.924 63.5129 404.716 61.7669 404.716C60.3449 404.716 59.1929 404.266 58.3109 403.384C57.4289 402.502 56.9789 401.368 56.9789 400C56.9789 398.65 57.4109 397.534 58.2929 396.634C59.1749 395.734 60.2909 395.284 61.6769 395.284ZM61.6769 396.436C59.8049 396.436 58.4369 397.66 58.2029 399.442H64.9169C64.7909 398.488 64.4309 397.75 63.8189 397.228C63.2069 396.706 62.4869 396.436 61.6769 396.436ZM72.2426 395.284C74.4206 395.284 75.7706 396.724 75.7706 398.974V404.5H74.5826V398.974C74.5826 397.372 73.7006 396.436 72.1346 396.436C70.4066 396.436 69.2186 397.498 69.2186 399.784V404.5H68.0306V395.5H69.2186V396.904C69.8846 395.824 70.8926 395.284 72.2426 395.284ZM82.8377 395.5V396.652H80.2457V402.106C80.2457 403.654 81.1097 403.528 82.8377 403.456V404.5C80.3177 404.878 79.0577 404.194 79.0577 402.106V396.652H77.1677V395.5H79.0577V393.34L80.2457 392.98V395.5H82.8377ZM88.4308 395.284C89.7628 395.284 90.8428 395.752 91.6528 396.706C92.4808 397.642 92.8948 398.758 92.8948 400.036C92.8948 400.162 92.8768 400.36 92.8588 400.594H84.9568C85.1908 402.412 86.6128 403.564 88.5388 403.564C89.9068 403.564 90.9328 402.952 91.4368 402.034L92.4808 402.646C91.6888 403.924 90.2668 404.716 88.5208 404.716C87.0988 404.716 85.9468 404.266 85.0648 403.384C84.1828 402.502 83.7328 401.368 83.7328 400C83.7328 398.65 84.1648 397.534 85.0468 396.634C85.9288 395.734 87.0448 395.284 88.4308 395.284ZM88.4308 396.436C86.5588 396.436 85.1908 397.66 84.9568 399.442H91.6708C91.5448 398.488 91.1848 397.75 90.5728 397.228C89.9608 396.706 89.2408 396.436 88.4308 396.436ZM95.9725 395.5V396.994C96.5305 395.896 97.4665 395.356 98.8165 395.356V396.508C97.1785 396.508 95.9725 397.426 95.9725 399.496V404.5H94.7845V395.5H95.9725ZM101.029 397.858C101.029 398.668 101.857 399.118 102.883 399.388C104.395 399.766 106.285 400.18 106.285 402.124C106.285 402.898 105.979 403.51 105.367 403.996C104.773 404.482 103.981 404.716 103.027 404.716C101.299 404.716 100.039 403.87 99.5531 402.646L100.561 402.052C100.903 402.988 101.821 403.564 103.027 403.564C104.197 403.564 105.097 403.114 105.097 402.124C105.097 401.314 104.269 400.864 103.243 400.594C101.731 400.216 99.8411 399.802 99.8411 397.858C99.8411 397.12 100.129 396.508 100.705 396.022C101.299 395.536 102.037 395.284 102.919 395.284C104.377 395.284 105.547 395.986 106.069 397.12L105.079 397.696C104.737 396.85 104.017 396.436 102.919 396.436C101.893 396.436 101.029 396.94 101.029 397.858ZM116.979 395.284C119.157 395.284 120.507 396.724 120.507 398.974V404.5H119.319V398.974C119.319 397.372 118.437 396.436 116.871 396.436C115.143 396.436 113.955 397.498 113.955 399.784V404.5H112.767V395.5H113.955V396.904C114.621 395.824 115.629 395.284 116.979 395.284ZM126.962 395.284C128.294 395.284 129.374 395.752 130.184 396.706C131.012 397.642 131.426 398.758 131.426 400.036C131.426 400.162 131.408 400.36 131.39 400.594H123.488C123.722 402.412 125.144 403.564 127.07 403.564C128.438 403.564 129.464 402.952 129.968 402.034L131.012 402.646C130.22 403.924 128.798 404.716 127.052 404.716C125.63 404.716 124.478 404.266 123.596 403.384C122.714 402.502 122.264 401.368 122.264 400C122.264 398.65 122.696 397.534 123.578 396.634C124.46 395.734 125.576 395.284 126.962 395.284ZM126.962 396.436C125.09 396.436 123.722 397.66 123.488 399.442H130.202C130.076 398.488 129.716 397.75 129.104 397.228C128.492 396.706 127.772 396.436 126.962 396.436ZM141.056 397.264V395.5H142.244V404.5H141.056V402.736C140.228 404.05 139.022 404.716 137.42 404.716C136.142 404.716 135.044 404.266 134.126 403.348C133.226 402.43 132.776 401.314 132.776 400C132.776 398.686 133.226 397.57 134.126 396.652C135.044 395.734 136.142 395.284 137.42 395.284C139.022 395.284 140.228 395.95 141.056 397.264ZM134.99 402.538C135.674 403.222 136.52 403.564 137.51 403.564C138.5 403.564 139.346 403.222 140.03 402.538C140.714 401.836 141.056 400.99 141.056 400C141.056 399.01 140.714 398.164 140.03 397.48C139.346 396.778 138.5 396.436 137.51 396.436C136.52 396.436 135.674 396.778 134.99 397.48C134.306 398.164 133.964 399.01 133.964 400C133.964 400.99 134.306 401.836 134.99 402.538ZM145.947 395.5V396.994C146.505 395.896 147.441 395.356 148.791 395.356V396.508C147.153 396.508 145.947 397.426 145.947 399.496V404.5H144.759V395.5H145.947ZM158.483 403.042L161.399 395.5H162.659L158.807 405.328C158.105 407.11 156.755 408.226 155.171 408.1V406.984C156.251 407.11 157.079 406.48 157.637 405.112L157.871 404.554L153.839 395.5H155.099L158.483 403.042ZM171.285 403.366C170.367 404.266 169.251 404.716 167.937 404.716C166.623 404.716 165.489 404.266 164.571 403.366C163.653 402.448 163.203 401.332 163.203 400C163.203 398.668 163.653 397.552 164.571 396.652C165.489 395.734 166.623 395.284 167.937 395.284C169.251 395.284 170.367 395.734 171.285 396.652C172.203 397.552 172.671 398.668 172.671 400C172.671 401.332 172.203 402.448 171.285 403.366ZM165.417 402.538C166.101 403.222 166.947 403.564 167.937 403.564C168.927 403.564 169.773 403.222 170.457 402.538C171.141 401.836 171.483 400.99 171.483 400C171.483 399.01 171.141 398.164 170.457 397.48C169.773 396.778 168.927 396.436 167.937 396.436C166.947 396.436 166.101 396.778 165.417 397.48C164.733 398.164 164.391 399.01 164.391 400C164.391 400.99 164.733 401.836 165.417 402.538ZM180.995 400.216V395.5H182.183V404.5H180.995V403.096C180.329 404.176 179.321 404.716 177.971 404.716C175.793 404.716 174.443 403.276 174.443 401.026V395.5H175.631V401.026C175.631 402.628 176.513 403.564 178.079 403.564C179.807 403.564 180.995 402.502 180.995 400.216ZM186.209 404.392C185.831 404.77 185.183 404.77 184.805 404.392C184.427 404.014 184.427 403.366 184.805 402.988C185.183 402.61 185.831 402.61 186.209 402.988C186.587 403.366 186.587 404.014 186.209 404.392Z" fill="#2E2E2E"/>
<rect x="4" y="424.5" width="226" height="60" rx="10" fill="#2A73B2"/>
<path d="M26.9 444.2V445.784H19.1V451.976H26.54V453.56H19.1V461H17.42V444.2H26.9ZM31.1396 446.12C30.6836 446.576 29.9636 446.576 29.5076 446.12C29.0516 445.664 29.0516 444.944 29.5076 444.488C29.9636 444.032 30.6836 444.032 31.1396 444.488C31.5956 444.944 31.5956 445.664 31.1396 446.12ZM31.1156 461H29.5316V449H31.1156V461ZM40.0929 448.712C42.9969 448.712 44.7969 450.632 44.7969 453.632V461H43.2129V453.632C43.2129 451.496 42.0369 450.248 39.9489 450.248C37.6449 450.248 36.0609 451.664 36.0609 454.712V461H34.4769V449H36.0609V450.872C36.9489 449.432 38.2929 448.712 40.0929 448.712ZM58.1797 451.352V444.2H59.7637V461H58.1797V458.648C57.0757 460.4 55.4677 461.288 53.3317 461.288C51.6277 461.288 50.1637 460.688 48.9397 459.464C47.7397 458.24 47.1397 456.752 47.1397 455C47.1397 453.248 47.7397 451.76 48.9397 450.536C50.1637 449.312 51.6277 448.712 53.3317 448.712C55.4677 448.712 57.0757 449.6 58.1797 451.352ZM50.0917 458.384C51.0037 459.296 52.1317 459.752 53.4517 459.752C54.7717 459.752 55.8997 459.296 56.8117 458.384C57.7237 457.448 58.1797 456.32 58.1797 455C58.1797 453.68 57.7237 452.552 56.8117 451.64C55.8997 450.704 54.7717 450.248 53.4517 450.248C52.1317 450.248 51.0037 450.704 50.0917 451.64C49.1797 452.552 48.7237 453.68 48.7237 455C48.7237 456.32 49.1797 457.448 50.0917 458.384ZM79.4375 451.352V449H81.0215V461H79.4375V458.648C78.3335 460.4 76.7255 461.288 74.5895 461.288C72.8855 461.288 71.4215 460.688 70.1975 459.464C68.9975 458.24 68.3975 456.752 68.3975 455C68.3975 453.248 68.9975 451.76 70.1975 450.536C71.4215 449.312 72.8855 448.712 74.5895 448.712C76.7255 448.712 78.3335 449.6 79.4375 451.352ZM71.3495 458.384C72.2615 459.296 73.3895 459.752 74.7095 459.752C76.0295 459.752 77.1575 459.296 78.0695 458.384C78.9815 457.448 79.4375 456.32 79.4375 455C79.4375 453.68 78.9815 452.552 78.0695 451.64C77.1575 450.704 76.0295 450.248 74.7095 450.248C73.3895 450.248 72.2615 450.704 71.3495 451.64C70.4375 452.552 69.9815 453.68 69.9815 455C69.9815 456.32 70.4375 457.448 71.3495 458.384ZM90.6153 444.2H96.6153C98.1273 444.2 99.3753 444.704 100.383 445.712C101.391 446.72 101.895 447.968 101.895 449.48C101.895 450.992 101.391 452.24 100.383 453.248C99.3753 454.256 98.1273 454.76 96.6153 454.76H92.2953V461H90.6153V444.2ZM92.2953 453.176H96.6153C97.6473 453.176 98.5113 452.84 99.1833 452.144C99.8793 451.448 100.215 450.56 100.215 449.48C100.215 448.4 99.8793 447.536 99.1833 446.84C98.5113 446.144 97.6473 445.784 96.6153 445.784H92.2953V453.176ZM115.572 451.568V444.2H117.252V461H115.572V453.152H106.452V461H104.772V444.2H106.452V451.568H115.572ZM128.932 461.288C126.388 461.288 124.276 460.448 122.62 458.768C120.964 457.088 120.124 455.024 120.124 452.6C120.124 450.176 120.964 448.112 122.62 446.432C124.276 444.752 126.388 443.912 128.932 443.912C132.028 443.912 134.788 445.52 136.204 448.04L134.716 448.904C133.66 446.864 131.428 445.544 128.932 445.544C126.844 445.544 125.116 446.216 123.796 447.584C122.476 448.952 121.804 450.608 121.804 452.6C121.804 454.592 122.476 456.248 123.796 457.616C125.116 458.984 126.844 459.656 128.932 459.656C131.428 459.656 133.66 458.336 134.716 456.296L136.204 457.136C134.836 459.656 132.028 461.288 128.932 461.288ZM152.815 461.288C150.271 461.288 148.159 460.448 146.503 458.768C144.847 457.088 144.007 455.024 144.007 452.6C144.007 450.176 144.847 448.112 146.503 446.432C148.159 444.752 150.271 443.912 152.815 443.912C155.911 443.912 158.671 445.52 160.087 448.04L158.599 448.904C157.543 446.864 155.311 445.544 152.815 445.544C150.727 445.544 148.999 446.216 147.679 447.584C146.359 448.952 145.687 450.608 145.687 452.6C145.687 454.592 146.359 456.248 147.679 457.616C148.999 458.984 150.727 459.656 152.815 459.656C155.311 459.656 157.543 458.336 158.599 456.296L160.087 457.136C158.719 459.656 155.911 461.288 152.815 461.288ZM168.037 448.712C169.813 448.712 171.253 449.336 172.333 450.608C173.437 451.856 173.989 453.344 173.989 455.048C173.989 455.216 173.965 455.48 173.941 455.792H163.405C163.717 458.216 165.613 459.752 168.181 459.752C170.005 459.752 171.373 458.936 172.045 457.712L173.437 458.528C172.381 460.232 170.485 461.288 168.157 461.288C166.261 461.288 164.725 460.688 163.549 459.512C162.373 458.336 161.773 456.824 161.773 455C161.773 453.2 162.349 451.712 163.525 450.512C164.701 449.312 166.189 448.712 168.037 448.712ZM168.037 450.248C165.541 450.248 163.717 451.88 163.405 454.256H172.357C172.189 452.984 171.709 452 170.893 451.304C170.077 450.608 169.117 450.248 168.037 450.248ZM182.124 448.712C185.028 448.712 186.828 450.632 186.828 453.632V461H185.244V453.632C185.244 451.496 184.068 450.248 181.98 450.248C179.676 450.248 178.092 451.664 178.092 454.712V461H176.508V449H178.092V450.872C178.98 449.432 180.324 448.712 182.124 448.712ZM196.251 449V450.536H192.795V457.808C192.795 459.872 193.947 459.704 196.251 459.608V461C192.891 461.504 191.211 460.592 191.211 457.808V450.536H188.691V449H191.211V446.12L192.795 445.64V449H196.251ZM203.708 448.712C205.484 448.712 206.924 449.336 208.004 450.608C209.108 451.856 209.66 453.344 209.66 455.048C209.66 455.216 209.636 455.48 209.612 455.792H199.076C199.388 458.216 201.284 459.752 203.852 459.752C205.676 459.752 207.044 458.936 207.716 457.712L209.108 458.528C208.052 460.232 206.156 461.288 203.828 461.288C201.932 461.288 200.396 460.688 199.22 459.512C198.044 458.336 197.444 456.824 197.444 455C197.444 453.2 198.02 451.712 199.196 450.512C200.372 449.312 201.86 448.712 203.708 448.712ZM203.708 450.248C201.212 450.248 199.388 451.88 199.076 454.256H208.028C207.86 452.984 207.38 452 206.564 451.304C205.748 450.608 204.788 450.248 203.708 450.248ZM213.764 449V450.992C214.508 449.528 215.756 448.808 217.556 448.808V450.344C215.372 450.344 213.764 451.568 213.764 454.328V461H212.18V449H213.764Z" fill="white"/>
</svg>
