<svg width="300" height="400" viewBox="0 0 300 400" fill="none" xmlns="http://www.w3.org/2000/svg">
<path d="M256.248 105.113C256.241 101.895 254.915 98.7819 252.842 97.1133L203.93 58.8112C203.571 58.5302 203.065 58.5302 202.701 58.8043C170.346 83.1667 129.775 83.1647 97.4208 58.7984C97.0603 58.527 96.56 58.524 96.2014 58.7978L47.156 96.2438C45.083 97.9124 43.7575 101.025 43.7497 104.243C43.4973 200.782 83.2196 292.118 145.938 340.223C148.407 342.115 151.591 342.115 154.06 340.223C216.58 292.27 256.268 201.346 256.248 105.113Z" stroke="#0057A3" stroke-width="5" stroke-miterlimit="10"/>
<path d="M134.426 134.003C133.594 136.683 133.594 140.08 133.594 146.875V160.758C133.594 161.088 133.594 161.253 133.517 161.356C133.44 161.458 133.316 161.458 133.069 161.458H122.656C117.56 161.458 115.012 161.458 113.002 162.568C110.322 164.049 108.193 166.888 107.083 170.461C106.25 173.141 106.25 176.538 106.25 183.333C106.25 190.128 106.25 193.526 107.083 196.206C108.193 199.779 110.322 202.618 113.002 204.098C115.012 205.208 117.56 205.208 122.656 205.208H133.069C133.316 205.208 133.44 205.208 133.517 205.311C133.594 205.413 133.594 205.578 133.594 205.908V219.792C133.594 226.587 133.594 229.984 134.426 232.664C135.536 236.237 137.666 239.076 140.346 240.557C142.356 241.667 144.904 241.667 150 241.667C155.096 241.667 157.644 241.667 159.654 240.557C162.334 239.076 164.464 236.237 165.574 232.664C166.406 229.984 166.406 226.587 166.406 219.792V205.908C166.406 205.578 166.406 205.413 166.483 205.311C166.56 205.208 166.684 205.208 166.931 205.208H177.344C182.44 205.208 184.988 205.208 186.998 204.098C189.678 202.618 191.807 199.779 192.917 196.206C193.75 193.526 193.75 190.128 193.75 183.333C193.75 176.538 193.75 173.141 192.917 170.461C191.807 166.888 189.678 164.049 186.998 162.568C184.988 161.458 182.44 161.458 177.344 161.458H166.931C166.684 161.458 166.56 161.458 166.483 161.356C166.406 161.253 166.406 161.088 166.406 160.758V146.875C166.406 140.08 166.406 136.683 165.574 134.003C164.464 130.429 162.334 127.59 159.654 126.11C157.644 125 155.096 125 150 125C144.904 125 142.356 125 140.346 126.11C137.666 127.59 135.536 130.429 134.426 134.003Z" stroke="#0057A3" stroke-width="5"/>
</svg>
