<svg width="234" height="235" viewBox="0 0 234 235" fill="none" xmlns="http://www.w3.org/2000/svg">
<path fill-rule="evenodd" clip-rule="evenodd" d="M160.875 69.3642C160.875 100.515 142.057 127.25 117 127.25C91.923 127.25 73.125 100.515 73.125 69.3545C73.125 38.213 89.31 20 117 20C144.69 20 160.875 38.2032 160.875 69.3642ZM39.9945 196.884C43.7483 201.35 59.9138 215 117 215C174.086 215 190.242 201.35 194.005 196.894C194.355 196.466 194.612 195.971 194.763 195.439C194.914 194.908 194.955 194.351 194.883 193.803C194.025 185.204 186.283 146.75 117 146.75C47.7165 146.75 39.975 185.204 39.1073 193.803C39.0366 194.352 39.0789 194.909 39.2315 195.441C39.3841 195.972 39.6437 196.457 39.9945 196.884Z" fill="#2A73B2"/>
</svg>
