<svg width="300" height="400" viewBox="0 0 300 400" fill="none" xmlns="http://www.w3.org/2000/svg">
<path d="M93.75 83.3327H68.5C65.6716 83.3327 64.2574 83.3327 63.3787 84.2114C62.5 85.09 62.5 86.5043 62.5 89.3327V271.333C62.5 276.99 62.5 279.818 64.2574 281.575C66.0147 283.333 68.8431 283.333 74.5 283.333H125M93.75 83.3327C93.75 92.5374 99.3464 99.9993 106.25 99.9993C113.154 99.9993 118.75 92.5374 118.75 83.3327C118.75 74.1279 113.154 66.666 106.25 66.666C99.3464 66.666 93.75 74.1279 93.75 83.3327ZM162.5 83.3327C162.5 92.5374 156.904 99.9993 150 99.9993C143.096 99.9993 137.5 92.5374 137.5 83.3327C137.5 74.1279 143.096 66.666 150 66.666C156.904 66.666 162.5 74.1279 162.5 83.3327ZM162.5 83.3327H181.5C184.328 83.3327 185.743 83.3327 186.621 84.2114C187.5 85.09 187.5 86.5043 187.5 89.3327V271.333C187.5 276.99 187.5 279.818 185.743 281.575C183.985 283.333 181.157 283.333 175.5 283.333H125M125 283.333C125 366.666 231.25 374.999 231.25 283.333V216.666" stroke="#0057A3" stroke-width="5"/>
<path d="M250 191.666C250 205.473 241.605 216.666 231.25 216.666C220.895 216.666 212.5 205.473 212.5 191.666C212.5 177.859 220.895 166.666 231.25 166.666C241.605 166.666 250 177.859 250 191.666Z" stroke="#0057A3" stroke-width="5"/>
<path d="M231.25 191.5H231.375V191.667H231.25V191.5Z" stroke="#0057A3" stroke-width="10" stroke-linejoin="round"/>
</svg>
